<svg width="122" height="33" viewBox="0 0 122 33" fill="none" xmlns="http://www.w3.org/2000/svg">
<path fill-rule="evenodd" clip-rule="evenodd" d="M82.7019 18.155C82.417 19.2102 81.5235 19.0715 81.3002 18.6171V18.6094C81.1727 18.35 81.1045 18.2923 80.9984 18.2026C80.925 18.1406 80.8335 18.0632 80.6917 17.8931C78.5198 15.6519 76.3016 17.5465 74.869 19.3103C72.4737 21.9752 69.6471 31.3022 72.7279 29.6309C75.2581 28.3931 77.468 24.6744 78.9435 22.1917C79.3409 21.523 79.685 20.9439 79.9677 20.5272C81.3002 18.5632 83.5568 19.4643 83.2103 21.721C83.1944 21.8274 83.1715 21.9664 83.1442 22.1322C82.9463 23.3343 82.5166 25.9445 82.8483 27.7516C83.1912 29.6201 85.0919 27.2856 85.9507 26.2309C86.037 26.1248 86.1129 26.0317 86.1755 25.9571C85.7205 23.0524 86.2234 20.0785 87.6081 17.4849C90.9892 11.2232 97.6745 13.1949 95.9647 18.6787C95.2079 21.28 93.2659 23.3705 90.7274 24.3166C89.7184 24.694 89.0329 23.6234 90.1035 22.7762C91.4025 21.9547 92.4394 20.7789 93.0919 19.3873C94.0469 17.5927 92.9763 16.1371 91.228 17.3848C88.6401 19.2564 87.4001 27.5899 91.3127 30.0391C95.0405 31.9646 97.9364 28.1059 100.555 23.3153C99.1918 17.8007 99.4922 8.09623 103.343 3.11307C107.371 -2.07805 113.017 -0.0293331 113.117 3.82165C113.23 9.0773 109.094 16.3806 107.195 19.7343C106.765 20.4942 106.449 21.0513 106.324 21.3359C105.869 22.3526 104.398 21.9598 105.099 20.4194C109.928 11.7624 110.206 5.18489 110.028 3.69841C109.713 0.995027 107.51 1.62659 105.407 3.93718C100.486 10.8227 102.712 21.0663 104.252 26.9198C104.485 27.7962 104.746 28.5733 104.965 29.226C105.261 30.1049 105.48 30.7583 105.454 31.1251C105.33 33.1276 103.69 32.8503 102.92 31.3099C102.267 29.8381 101.751 28.3092 101.379 26.7427C97.482 32.9119 92.1907 33.3279 89.2332 31.3022C88.1955 30.526 87.3497 29.5221 86.7609 28.3678C82.6942 32.2419 79.2823 29.6232 79.159 25.6028C79.1172 25.6581 79.0581 25.7402 78.9826 25.8449C78.2812 26.8191 76.1667 29.7557 73.3363 31.4178C70.7485 32.9273 68.5226 32.0339 68.3224 29.5847C68.0451 24.9866 72.5508 18.6787 74.0911 16.9689C75.7625 15.1281 77.4261 13.8881 79.7136 13.9574C82.0011 14.0267 83.0254 16.9689 82.7019 18.155ZM32.5237 28.1521C31.3299 22.2755 34.0795 16.5222 34.919 15.829H34.9421C35.5492 15.2514 36.4672 15.15 37.1857 15.5812C37.9043 16.0123 38.2468 16.87 38.0229 17.6775C37.814 18.518 37.5357 19.3398 37.1911 20.1344C36.2282 22.6864 35.7426 25.3937 35.7585 28.1213C36.0369 32.2764 37.6786 30.9453 38.1501 30.5631L38.1501 30.5631C38.1873 30.5329 38.2171 30.5087 38.2385 30.4935C38.5312 30.2856 39.7635 28.9531 40.2718 25.803C40.6569 23.4154 42.0818 17.7314 46.9571 15.3438C50.2921 13.7264 52.6797 15.5671 52.749 17.6544C52.8183 19.7416 50.5 19.3103 49.8993 18.594C49.8671 18.5516 49.8336 18.5058 49.7985 18.4579C49.4391 17.9667 48.9162 17.2523 47.9969 17.6313C46.1561 18.3861 43.6915 22.3372 43.7608 26.7735C43.8301 31.2098 47.9045 30.3395 50.3152 28.5218C52.7259 26.7042 54.3125 22.4989 54.4511 21.4899C54.7746 15.6287 58.7257 3.10536 60.6127 1.07975C62.6614 -1.13071 64.5176 1.00273 64.0555 1.84994C63.5133 3.17128 62.9183 4.53395 62.3084 5.93085C59.6084 12.1145 56.6154 18.9691 56.6154 25.8801C58.4254 20.5503 61.9606 16.3527 65.5959 15.829C68.9539 15.3361 69.5008 17.7314 68.7306 19.7262C68.6023 20.0585 68.4535 20.4006 68.2961 20.7624L68.296 20.7627C67.5086 22.5727 66.5073 24.8748 66.7897 28.8992C66.8016 29.0584 66.8175 29.2327 66.8341 29.416C66.9361 30.5367 67.0684 31.9912 66.5124 32.342C64.972 33.3047 64.248 31.3022 64.2018 29.0995C64.1624 27.2222 65.2083 23.3312 65.6422 21.7169L65.6422 21.7168L65.6423 21.7164C65.7175 21.4367 65.7743 21.2254 65.8038 21.1048C66.6356 17.7545 63.5472 19.0176 62.6383 19.9573C59.5712 23.1327 58.0992 28.2367 57.5212 30.2408C57.4417 30.5164 57.3792 30.7334 57.3317 30.8786C56.8696 32.3035 55.0827 31.6334 54.7207 29.9929C54.429 28.9005 54.256 27.7798 54.2047 26.6503C50.3229 32.2727 42.9444 34.3676 40.8495 29.7927C37.0755 34.2675 33.679 33.0429 32.5237 28.1521ZM29.9127 28.6374C29.2426 26.0341 29.6585 20.6658 30.0667 17.5234C30.4287 14.8627 30.9728 12.7601 31.4486 10.9212L31.4486 10.9212C31.9851 8.84771 32.4349 7.10963 32.4389 5.28502C32.4389 3.68301 31.9383 0.363467 28.4339 0.224831C19.7846 -0.067843 16.596 20.9662 16.1647 23.9392C16.103 23.4641 16.0749 22.2118 16.0375 20.542V20.542V20.5419V20.5418C15.9676 17.4201 15.8649 12.8395 15.4484 9.1514C14.5319 0.787075 12.7219 0.309553 10.9351 0.170918C5.02162 -0.265552 4.12717 10.1274 4.08178 21.0103C4.00259 18.6274 3.62968 15.8486 2.10093 14.15C0.968744 12.8946 -0.779601 13.0178 0.383395 14.6891C0.446953 14.7751 0.512325 14.9119 0.583037 15.0599C0.657995 15.2167 0.738953 15.3862 0.830109 15.5209C1.88959 17.1192 2.34497 20.9808 2.77146 24.5973C3.24718 28.6313 3.68695 32.3603 4.88904 32.3035C5.60532 32.3035 6.6836 31.98 6.59117 28.9454C6.32161 19.7955 7.01478 3.41344 10.1341 3.39804C12.413 3.39804 12.772 11.1397 13.0913 18.0237C13.235 21.1207 13.3705 24.0441 13.6693 26.011C14.2084 29.2227 17.5203 29.4923 18.5908 24.925C18.9571 23.3043 19.231 21.838 19.4923 20.4389L19.4923 20.4388C20.2146 16.572 20.841 13.2181 23.058 8.53524C27.0707 0.06309 30.3825 2.8589 28.9577 8.7432C28.8738 9.07187 28.7705 9.45102 28.6546 9.87656C27.7057 13.3599 25.9101 19.9513 27.0014 27.405C27.3557 29.8389 28.9269 32.9196 30.0821 32.2573C30.7196 31.8983 30.444 30.8284 29.9648 28.968L29.8896 28.6759L29.9127 28.6374ZM117.977 16.3219C117.353 14.2424 112.686 15.2205 113.718 17.7391C114.078 18.6302 115.264 19.3472 116.643 20.1814C118.208 21.1283 120.023 22.2261 121.166 23.9007C124.508 28.853 117.099 34.3676 111.5 31.7258C107.548 29.8697 107.533 26.9814 107.795 25.7953C108.172 24.0393 110.105 24.0085 110.375 24.9404C110.603 26.0141 110.372 26.3768 110.184 26.6722C110.073 26.8452 109.978 26.9951 109.998 27.251C110.306 30.0622 114.896 31.2637 117.307 28.7914C120.619 25.4333 117.715 23.2614 117.137 22.8455C116.575 22.4375 115.927 22.1415 115.267 21.8393C114.119 21.3143 112.93 20.7704 112.069 19.5876C109.143 15.5902 113.687 12.1244 117.014 13.1256C118.555 13.5877 119.756 14.666 119.463 16.1294C119.217 17.3386 118.254 17.2308 117.977 16.3142V16.3219ZM38.4157 9.45948C37.6144 9.5849 36.922 10.0874 36.5544 10.8104C36.1868 11.5334 36.1887 12.3889 36.5595 13.1102C36.9896 13.8147 37.868 14.102 38.6313 13.788C39.6604 13.273 40.3857 12.3022 40.5876 11.1693C40.5876 10.0525 39.9484 9.32084 38.4157 9.44408V9.45948Z" fill="#CF1F2E"/>
</svg>
